<?xml version="1.0" encoding="UTF-8" standalone="no"?>
<svg
   xmlns:dc="http://purl.org/dc/elements/1.1/"
   xmlns:cc="http://creativecommons.org/ns#"
   xmlns:rdf="http://www.w3.org/1999/02/22-rdf-syntax-ns#"
   xmlns:svg="http://www.w3.org/2000/svg"
   xmlns="http://www.w3.org/2000/svg"
   xmlns:sodipodi="http://sodipodi.sourceforge.net/DTD/sodipodi-0.dtd"
   xmlns:inkscape="http://www.inkscape.org/namespaces/inkscape"
   width="27.696272mm"
   height="27.696272mm"
   viewBox="0 0 27.696272 27.696272"
   version="1.1"
   id="svg8"
   inkscape:version="1.0 (4035a4fb49, 2020-05-01)"
   sodipodi:docname="among_us.svg">
  <defs
     id="defs2" />
  <sodipodi:namedview
     id="base"
     pagecolor="#ffffff"
     bordercolor="#666666"
     borderopacity="1.0"
     inkscape:pageopacity="0.0"
     inkscape:pageshadow="2"
     inkscape:zoom="5.6"
     inkscape:cx="81.414779"
     inkscape:cy="63.31451"
     inkscape:document-units="mm"
     inkscape:current-layer="layer1"
     inkscape:document-rotation="0"
     showgrid="false"
     fit-margin-top="0"
     fit-margin-left="0"
     fit-margin-right="0"
     fit-margin-bottom="0"
     inkscape:window-width="1920"
     inkscape:window-height="1016"
     inkscape:window-x="0"
     inkscape:window-y="27"
     inkscape:window-maximized="1" />
  <metadata
     id="metadata5">
    <rdf:RDF>
      <cc:Work
         rdf:about="">
        <dc:format>image/svg+xml</dc:format>
        <dc:type
           rdf:resource="http://purl.org/dc/dcmitype/StillImage" />
        <dc:title />
      </cc:Work>
    </rdf:RDF>
  </metadata>
  <g
     inkscape:label="Layer 1"
     inkscape:groupmode="layer"
     id="layer1"
     transform="translate(89.505874,-23.549516)">
    <circle
       style="fill:#2f3136;fill-opacity:1;stroke:none;stroke-width:1;stroke-linecap:round;stroke-linejoin:round;stroke-miterlimit:4;stroke-dasharray:none;paint-order:fill markers stroke"
       id="path865"
       cx="-75.657738"
       cy="37.397652"
       r="13.848136" />
    <path
       style="fill:none;fill-opacity:1;stroke:#000000;stroke-width:1;stroke-linecap:butt;stroke-linejoin:miter;stroke-miterlimit:4;stroke-dasharray:none;stroke-opacity:1"
       d="m -81.989524,33.823325 c 0,0 -1.864945,-0.152863 -2.131722,-0.07486 -0.266776,0.078 -0.984855,1.849078 -1.270338,2.848875 -0.488369,1.710328 -0.703081,3.50767 -0.727872,5.286184 -0.006,0.427077 -0.04199,1.115864 0.139335,1.273757 0.181327,0.157893 2.375707,0.456695 2.375707,0.456695 z"
       id="path851"
       sodipodi:nodetypes="csaascc" />
    <g
       style="opacity:1"
       transform="matrix(0.26458333,0,0,0.26458333,-89.505874,23.549516)"
       id="g905">
      <path
         id="path907"
         d="m 58.179688,13.105469 c -6.144086,0.119871 -12.523207,2.581901 -17.167969,6.40625 -6.358462,5.235353 -9.95597,10.900975 -12.695313,19.3125 -0.17292,-0.01411 -6.969226,-0.568453 -7.964844,-0.277344 -1.008287,0.294803 -3.72179,6.988818 -4.800781,10.767578 -1.845804,6.464232 -2.658255,13.256573 -2.751953,19.978516 -0.02268,1.614149 -0.157979,4.217692 0.527344,4.814453 0.68533,0.596761 8.978516,1.726562 8.978516,1.726562 -10e-7,0 23.51686,3.573382 35.367187,3.611328 11.406807,0.03651 34.064453,-3.257812 34.064453,-3.257812 0,0 1.254657,-13.006466 0.511719,-19.449219 -1.072694,-9.302388 -1.784935,-19.474785 -7.109375,-27.177734 -5.290734,-7.65419 -13.59592,-14.58418 -22.767578,-16.152344 -1.368586,-0.234 -2.773541,-0.330397 -4.191406,-0.302734 z"
         style="color:#000000;font-style:normal;font-variant:normal;font-weight:normal;font-stretch:normal;font-size:medium;line-height:normal;font-family:sans-serif;font-variant-ligatures:normal;font-variant-position:normal;font-variant-caps:normal;font-variant-numeric:normal;font-variant-alternates:normal;font-variant-east-asian:normal;font-feature-settings:normal;font-variation-settings:normal;text-indent:0;text-align:start;text-decoration:none;text-decoration-line:none;text-decoration-style:solid;text-decoration-color:#000000;letter-spacing:normal;word-spacing:normal;text-transform:none;writing-mode:lr-tb;direction:ltr;text-orientation:mixed;dominant-baseline:auto;baseline-shift:baseline;text-anchor:start;white-space:normal;shape-padding:0;shape-margin:0;inline-size:0;clip-rule:nonzero;display:inline;overflow:visible;visibility:visible;isolation:auto;mix-blend-mode:normal;color-interpolation:sRGB;color-interpolation-filters:linearRGB;solid-color:#000000;solid-opacity:1;vector-effect:none;fill:#c03e47;fill-opacity:1;fill-rule:nonzero;stroke:none;stroke-width:3.77953;stroke-linecap:butt;stroke-linejoin:miter;stroke-miterlimit:4;stroke-dasharray:none;stroke-dashoffset:0;stroke-opacity:1.0;color-rendering:auto;image-rendering:auto;shape-rendering:auto;text-rendering:auto;enable-background:accumulate;stop-color:#000000;stop-opacity:1;" />
      <path
         d="M 58.142578 11.203125 C 53.327259 11.283206 48.46362 12.704425 44.246094 15.050781 C 44.07444 15.145934 43.901876 15.239651 43.732422 15.337891 C 43.535523 15.452414 43.342227 15.570867 43.148438 15.689453 C 42.930349 15.822526 42.713954 15.957547 42.5 16.095703 C 42.339158 16.199808 42.179884 16.305221 42.021484 16.412109 C 41.773179 16.579332 41.529134 16.751783 41.287109 16.925781 C 41.151779 17.023212 41.014139 17.117326 40.880859 17.216797 C 40.516335 17.488554 40.158914 17.7659 39.810547 18.052734 C 39.307739 18.46673 38.826867 18.887014 38.355469 19.310547 C 38.203354 19.446716 38.053239 19.583591 37.904297 19.720703 C 37.624814 19.979182 37.352597 20.241324 37.083984 20.503906 C 32.428071 25.028009 29.373955 30.129073 27.007812 36.839844 C 26.331505 36.788382 25.886225 36.747722 24.748047 36.683594 C 23.810543 36.630772 22.845841 36.588095 22.019531 36.576172 C 21.193222 36.564249 20.780129 36.451781 19.820312 36.732422 C 18.879376 37.007533 18.688697 37.425044 18.417969 37.767578 C 18.14724 38.110112 17.919162 38.47539 17.683594 38.890625 C 17.212457 39.721094 16.729017 40.745662 16.242188 41.876953 C 15.268526 44.139534 14.307815 46.786665 13.734375 48.794922 C 11.832808 55.454444 11.005729 62.411148 10.910156 69.267578 C 10.899321 70.036052 10.854379 71.126263 10.910156 72.181641 C 10.938063 72.709683 10.985127 73.228757 11.111328 73.763672 C 11.237529 74.298587 11.378159 74.916888 12.085938 75.533203 C 12.772009 76.130611 12.990134 76.049784 13.363281 76.162109 C 13.736428 76.274434 14.152013 76.375508 14.617188 76.476562 C 15.547536 76.678673 16.667259 76.877271 17.763672 77.058594 C 19.057985 77.272645 19.486041 77.32498 20.292969 77.441406 C 20.844427 77.520972 22.010758 77.701664 22.021484 77.703125 L 22.037109 77.705078 C 22.037141 77.705082 22.048828 77.707031 22.048828 77.707031 C 22.076708 77.711307 29.90077 78.898988 38.826172 79.916016 C 39.563915 80.000222 40.268036 80.088908 41.017578 80.169922 C 41.026225 80.170855 41.034321 80.170943 41.042969 80.171875 C 44.973703 80.596443 49.014234 80.965986 52.626953 81.169922 C 52.628809 81.170026 52.630957 81.169817 52.632812 81.169922 C 54.440788 81.271902 56.141891 81.333004 57.667969 81.337891 C 69.446689 81.375591 92.007812 78.060547 92.007812 78.060547 L 93.476562 77.847656 L 93.617188 76.371094 C 93.617188 76.371094 93.617187 76.369142 93.617188 76.369141 C 93.617188 76.369141 93.700293 75.563988 93.810547 74.25 C 93.810588 74.249507 93.810505 74.24854 93.810547 74.248047 C 93.976361 72.273438 94.205304 69.149439 94.318359 65.865234 C 94.431443 62.58021 94.428379 59.135453 94.126953 56.521484 C 93.727408 53.056641 93.385646 49.411725 92.814453 45.773438 C 92.814354 45.772806 92.814552 45.772116 92.814453 45.771484 C 92.624094 44.559141 92.408561 43.346751 92.15625 42.142578 C 92.15612 42.141957 92.15638 42.141246 92.15625 42.140625 C 92.03014 41.53885 91.893647 40.938963 91.748047 40.341797 C 91.747898 40.341184 91.748196 40.340456 91.748047 40.339844 C 91.602425 39.742679 91.447087 39.149436 91.279297 38.558594 C 91.279127 38.557995 91.279467 38.557239 91.279297 38.556641 C 91.111481 37.965798 90.930944 37.37773 90.738281 36.794922 C 90.738089 36.794339 90.738474 36.793551 90.738281 36.792969 C 90.545589 36.210162 90.339358 35.633606 90.119141 35.060547 C 90.118925 35.059986 90.119356 35.059154 90.119141 35.058594 C 89.898889 34.485533 89.662566 33.91707 89.412109 33.355469 C 89.411871 33.354933 89.412348 33.354051 89.412109 33.353516 C 89.161616 32.791913 88.894707 32.237882 88.611328 31.689453 C 88.611068 31.688949 88.611589 31.688004 88.611328 31.6875 C 88.328052 31.139346 88.02779 30.597735 87.708984 30.064453 C 87.708525 30.063685 87.707491 30.063268 87.707031 30.0625 C 87.593214 29.872152 87.464278 29.688305 87.345703 29.5 C 87.132001 29.160684 86.923074 28.818659 86.693359 28.486328 C 86.693061 28.485897 86.693658 28.484806 86.693359 28.484375 C 86.349074 27.986292 85.990941 27.491411 85.623047 27 C 85.622741 26.999591 85.623353 26.998456 85.623047 26.998047 C 85.255121 26.506626 84.875043 26.019481 84.484375 25.537109 C 84.484063 25.536724 84.484687 25.535542 84.484375 25.535156 C 84.093676 25.052777 83.69187 24.57642 83.279297 24.105469 C 83.278981 24.105108 83.279613 24.103876 83.279297 24.103516 C 82.866693 23.632559 82.441423 23.17004 82.007812 22.712891 C 82.007494 22.712555 82.008131 22.711273 82.007812 22.710938 C 81.574173 22.253785 81.12956 21.804247 80.675781 21.363281 C 80.221996 20.922308 79.758212 20.488815 79.285156 20.066406 C 79.284471 20.065795 79.283888 20.065065 79.283203 20.064453 C 78.810465 19.642381 78.329003 19.231238 77.837891 18.830078 C 77.837183 18.8295 77.836645 18.828703 77.835938 18.828125 C 77.344795 18.426994 76.844587 18.036047 76.335938 17.658203 C 76.335209 17.657662 76.334713 17.656791 76.333984 17.65625 C 75.825306 17.278439 75.306567 16.914648 74.78125 16.5625 C 74.780503 16.561999 74.780044 16.561048 74.779297 16.560547 C 74.253951 16.208434 73.720805 15.868997 73.179688 15.544922 C 73.178926 15.544466 73.178496 15.543425 73.177734 15.542969 C 72.636587 15.218931 72.087301 14.910811 71.53125 14.617188 C 71.530478 14.61678 71.530069 14.615642 71.529297 14.615234 C 70.416345 14.02765 69.274862 13.504212 68.107422 13.052734 C 68.106647 13.052435 68.106243 13.051081 68.105469 13.050781 C 67.522108 12.825238 66.9316 12.619638 66.335938 12.431641 C 65.142239 12.054897 63.925375 11.754619 62.6875 11.542969 C 62.617602 11.531018 62.546579 11.524982 62.476562 11.513672 C 62.117396 11.455833 61.756488 11.405844 61.394531 11.365234 C 61.172988 11.339913 60.950904 11.321921 60.728516 11.302734 C 60.553456 11.288108 60.378623 11.27253 60.203125 11.261719 C 59.898067 11.241996 59.593225 11.227285 59.287109 11.21875 C 58.906024 11.208125 58.524671 11.196771 58.142578 11.203125 z M 58.212891 15.001953 C 58.363458 14.998498 58.512106 15.006236 58.662109 15.005859 C 59.063371 15.006214 59.463389 15.012485 59.859375 15.035156 C 60.044408 15.045197 60.228428 15.059166 60.412109 15.074219 C 60.965157 15.120955 61.514529 15.179462 62.052734 15.271484 C 63.108586 15.452013 64.157832 15.712273 65.195312 16.044922 C 70.382304 17.708034 75.279165 21.164317 79.269531 25.341797 C 79.269849 25.34213 79.269213 25.343417 79.269531 25.34375 C 79.668277 25.761171 80.059414 26.184492 80.439453 26.615234 C 80.439769 26.615593 80.439137 26.616829 80.439453 26.617188 C 81.580425 27.910577 82.633711 29.25999 83.583984 30.634766 C 83.891596 31.079792 84.18457 31.534682 84.460938 32 C 84.461218 32.000471 84.460658 32.001482 84.460938 32.001953 C 84.737209 32.467319 84.998917 32.941647 85.246094 33.425781 C 85.246354 33.426291 85.245834 33.427225 85.246094 33.427734 C 85.493234 33.911875 85.727048 34.40489 85.947266 34.90625 C 85.947503 34.906791 85.947028 34.907662 85.947266 34.908203 C 86.608566 36.41315 87.153509 37.992821 87.611328 39.625 C 87.611497 39.625603 87.611159 39.62635 87.611328 39.626953 C 87.916214 40.715129 88.183759 41.825816 88.419922 42.955078 C 88.463221 43.161879 88.493818 43.37605 88.535156 43.583984 C 89.396176 47.920295 89.853976 52.489534 90.369141 56.957031 C 90.995979 62.392963 90.056014 72.634134 89.896484 74.466797 C 88.305277 74.693048 74.766862 76.630906 64.126953 77.308594 C 61.797959 77.454267 59.563239 77.560722 57.677734 77.554688 C 54.828924 77.545565 51.228717 77.318615 47.431641 76.984375 C 47.135981 76.958052 46.836248 76.92604 46.539062 76.898438 C 45.173106 76.773292 43.793606 76.635998 42.412109 76.490234 C 33.8538 75.566848 25.766837 74.350866 24.404297 74.148438 C 24.570834 71.968432 25.591092 58.107767 27.195312 50.628906 C 27.986737 46.939294 28.777433 43.712809 29.642578 40.830078 L 29.650391 40.830078 L 30.113281 39.410156 C 31.927705 33.838721 34.047558 29.641327 37.142578 25.941406 C 37.228194 25.839491 37.315247 25.737898 37.402344 25.636719 C 37.833929 25.133373 38.287113 24.640141 38.757812 24.152344 C 38.863904 24.042399 38.966033 23.931561 39.074219 23.822266 C 39.27849 23.6159 39.491181 23.411346 39.703125 23.207031 C 39.862112 23.053989 40.024172 22.902024 40.1875 22.75 C 40.829131 22.152128 41.498411 21.558983 42.212891 20.970703 C 42.713406 20.558595 43.242568 20.166757 43.787109 19.789062 C 43.857176 19.740557 43.927315 19.692428 43.998047 19.644531 C 44.517569 19.292004 45.05323 18.955373 45.605469 18.636719 C 45.727615 18.566483 45.852986 18.500127 45.976562 18.431641 C 46.438731 18.174552 46.912423 17.931038 47.392578 17.699219 C 47.527159 17.634556 47.65909 17.566506 47.794922 17.503906 C 48.30152 17.26926 48.818156 17.054474 49.339844 16.849609 C 49.595037 16.749942 49.851221 16.652818 50.109375 16.560547 C 50.436087 16.443141 50.766985 16.337548 51.097656 16.232422 C 51.577101 16.080804 52.059373 15.941425 52.544922 15.816406 C 52.77519 15.756881 53.005132 15.699755 53.236328 15.646484 C 53.789049 15.519505 54.343095 15.412757 54.898438 15.322266 C 55.144554 15.282263 55.390646 15.239496 55.636719 15.207031 C 56.499013 15.09246 57.360222 15.021518 58.212891 15.001953 z M 21.964844 40.355469 C 22.698263 40.366051 23.62947 40.405892 24.537109 40.457031 C 25.177727 40.493125 25.266423 40.506811 25.816406 40.544922 C 24.985404 43.362215 24.227448 46.430272 23.496094 49.839844 C 21.960189 57.000217 20.916798 69.269003 20.574219 73.662109 C 19.78458 73.547322 19.496114 73.514517 18.380859 73.330078 C 17.31831 73.154356 16.237293 72.96077 15.419922 72.783203 C 15.14008 72.72241 14.955739 72.671174 14.757812 72.619141 C 14.729524 72.434352 14.698289 72.260471 14.683594 71.982422 C 14.641397 71.184008 14.67562 70.165903 14.6875 69.320312 L 14.6875 69.318359 C 14.779323 62.730904 15.577147 56.102927 17.367188 49.833984 C 17.872738 48.063482 18.807981 45.473911 19.712891 43.371094 C 20.165345 42.319685 20.615759 41.379564 20.970703 40.753906 C 21.079778 40.561641 21.144786 40.478701 21.224609 40.359375 C 21.366604 40.358588 21.463101 40.348229 21.964844 40.355469 z "
         style="color:#000000;font-style:normal;font-variant:normal;font-weight:normal;font-stretch:normal;font-size:medium;line-height:normal;font-family:sans-serif;font-variant-ligatures:normal;font-variant-position:normal;font-variant-caps:normal;font-variant-numeric:normal;font-variant-alternates:normal;font-variant-east-asian:normal;font-feature-settings:normal;font-variation-settings:normal;text-indent:0;text-align:start;text-decoration:none;text-decoration-line:none;text-decoration-style:solid;text-decoration-color:#000000;letter-spacing:normal;word-spacing:normal;text-transform:none;writing-mode:lr-tb;direction:ltr;text-orientation:mixed;dominant-baseline:auto;baseline-shift:baseline;text-anchor:start;white-space:normal;shape-padding:0;shape-margin:0;inline-size:0;clip-rule:nonzero;display:inline;overflow:visible;visibility:visible;isolation:auto;mix-blend-mode:normal;color-interpolation:sRGB;color-interpolation-filters:linearRGB;solid-color:#000000;solid-opacity:1;vector-effect:none;fill:#000000;fill-opacity:1;fill-rule:nonzero;stroke:none;stroke-width:3.77953;stroke-linecap:butt;stroke-linejoin:miter;stroke-miterlimit:4;stroke-dasharray:none;stroke-dashoffset:0;stroke-opacity:1.0;color-rendering:auto;image-rendering:auto;shape-rendering:auto;text-rendering:auto;enable-background:accumulate;stop-color:#000000;stop-opacity:1;"
         id="path909" />
    </g>
    <path
       style="fill:#a0cade;fill-opacity:1;stroke:#000000;stroke-width:0.5;stroke-linecap:butt;stroke-linejoin:miter;stroke-miterlimit:4;stroke-dasharray:none;stroke-opacity:1"
       d="m -76.289698,32.943146 c 0,0 -0.437743,4.99785 -0.202049,5.184693 0.235693,0.186843 0.913532,0.304792 2.18481,0.306882 1.271275,0.0021 6.295091,-0.104656 6.491697,-0.211497 0.196607,-0.106841 0.234043,-0.997236 0.25208,-2.22713 0.01804,-1.229895 0.09099,-3.00785 -0.05753,-3.202916 -0.148519,-0.195067 -0.701352,-0.273212 -3.63632,-0.296612 -2.93497,-0.02339 -4.427571,-0.06088 -4.696957,0.04783 -0.269383,0.108706 -0.335735,0.398753 -0.335735,0.398753 z"
       id="path849" />
    <path
       style="fill:#eef3f3;fill-opacity:1;stroke:none;stroke-width:0.264583px;stroke-linecap:butt;stroke-linejoin:miter;stroke-opacity:1"
       d="m -74.02441,34.087038 c 0.470358,0.163427 1.156893,0.404877 1.493343,0.0378 0.145768,-0.159037 0.06371,-0.475862 -0.07254,-0.643122 -0.106455,-0.13068 -0.319398,-0.107976 -0.480631,-0.157107 -0.195591,-0.0596 -0.392278,-0.218062 -0.590256,-0.166947 -0.166064,0.04288 -0.249409,0.235904 -0.365432,0.362215 -0.09314,0.101396 -0.274904,0.179626 -0.264859,0.316939 0.0091,0.124929 0.183449,0.170865 0.280371,0.250219 10e-7,10e-7 2e-6,2e-6 4e-6,3e-6 z"
       id="path853"
       sodipodi:nodetypes="aaaaaaaaa" />
    <path
       style="fill:#eef3f3;fill-opacity:1;stroke:none;stroke-width:0.264583px;stroke-linecap:butt;stroke-linejoin:miter;stroke-opacity:1"
       d="m -71.762823,34.029097 c 0.262617,-0.147814 0.569386,0.2022 0.86356,0.267607 0.318424,0.0708 0.643241,0.130136 0.969421,0.133707 0.331849,0.0036 0.753847,0.119762 0.989012,-0.114406 0.160995,-0.160312 0.202947,-0.484918 0.0812,-0.676743 -0.115904,-0.182618 -0.402899,-0.166583 -0.615876,-0.204316 -0.180507,-0.03198 -0.368295,0.0097 -0.549699,-0.0167 -0.204831,-0.02983 -0.393705,-0.14593 -0.600286,-0.158948 -0.272441,-0.01717 -0.55857,0.0064 -0.811715,0.10858 -0.169725,0.06849 -0.388031,0.15054 -0.442315,0.325329 -0.03516,0.113196 -0.0017,0.34119 0.116697,0.335894 10e-7,0 0,-3e-6 10e-7,-4e-6 z"
       id="path855"
       sodipodi:nodetypes="aaaaaaaaaaaa" />
    <path
       style="fill:#000000;fill-opacity:0.544168;stroke:none;stroke-width:0.264583px;stroke-linecap:butt;stroke-linejoin:miter;stroke-opacity:1"
       d="m -83.038149,33.922064 c 0,0 -0.144543,2.384256 -1.048068,4.644893 -0.111606,0.27924 -0.563155,0.563284 -0.930558,0.602025 -0.224263,0.02365 -0.632167,-0.240924 -0.632167,-0.240924 l -0.360304,4.065143 2.404832,0.620771 1.870581,-9.537975 z"
       id="path857"
       sodipodi:nodetypes="csaccccc" />
    <path
       style="fill:#000000;fill-opacity:0.544168;stroke:none;stroke-width:0.264583px;stroke-linecap:butt;stroke-linejoin:miter;stroke-opacity:1"
       d="m -82.496093,37.768662 c 0,0 1.113147,2.343745 2.112587,3.091257 1.693878,1.266903 3.938397,1.691967 6.037315,1.954286 1.90139,0.237632 3.974015,0.381726 5.736633,-0.369893 0.961095,-0.409832 1.717713,-1.257565 2.310997,-2.117611 0.540993,-0.784243 1.056707,-2.655705 1.056707,-2.655705 l 0.0081,6.036416 c 0,0 -6.515288,0.973548 -7.719266,0.973548 -1.203979,0 -6.580598,-0.373775 -7.479636,-0.490845 -0.899039,-0.11707 -3.171741,-0.576143 -3.171741,-0.576143 z"
       id="path859"
       sodipodi:nodetypes="caaaaccsscc" />
    <path
       style="fill:#66818d;fill-opacity:1;stroke:none;stroke-width:0.264583px;stroke-linecap:butt;stroke-linejoin:miter;stroke-opacity:1"
       d="m -76.455981,34.78621 c 0,0 0.228693,1.169686 1.077839,1.485119 0.849145,0.315431 2.152634,0.260522 3.650088,0.254135 1.497457,-0.0064 2.307836,0.04379 2.816831,-0.128058 0.508995,-0.171847 0.937194,-0.737677 1.091536,-1.000305 0.154342,-0.262626 0.349554,-0.72626 0.349554,-0.72626 v 3.627675 c 0,0 -3.714038,0.35632 -4.916546,0.332698 -1.20251,-0.02363 -3.806171,-0.151323 -3.944995,-0.389787 -0.138824,-0.238461 -0.124307,-3.455217 -0.124307,-3.455217 z"
       id="path861" />
    <path
       id="path863"
       d="m -76.289698,32.943146 c 0,0 -0.437743,4.99785 -0.202049,5.184693 0.235693,0.186843 0.913532,0.304792 2.18481,0.306882 1.271275,0.0021 6.295091,-0.104656 6.491697,-0.211497 0.196607,-0.106841 0.234043,-0.997236 0.25208,-2.22713 0.01804,-1.229895 0.09099,-3.00785 -0.05753,-3.202916 -0.148519,-0.195067 -0.701352,-0.273212 -3.63632,-0.296612 -2.93497,-0.02339 -4.427571,-0.06088 -4.696957,0.04783 -0.269383,0.108706 -0.335735,0.398753 -0.335735,0.398753 z"
       style="fill:none;fill-opacity:1;stroke:#000000;stroke-width:0.5;stroke-linecap:butt;stroke-linejoin:miter;stroke-miterlimit:4;stroke-dasharray:none;stroke-opacity:1" />
  </g>
</svg>
